<?xml version="1.0" standalone="no"?><!DOCTYPE svg PUBLIC "-//W3C//DTD SVG 1.1//EN" "http://www.w3.org/Graphics/SVG/1.1/DTD/svg11.dtd"><svg class="icon" width="200px" height="196.36px" viewBox="0 0 1043 1024" version="1.1" xmlns="http://www.w3.org/2000/svg"><path fill="#333333" d="M58.222983 1023.999547a22.654857 22.654857 0 0 1-15.631851-6.116812 22.654857 22.654857 0 0 1-6.34336-22.654857l55.051303-231.532641a463.29183 463.29183 0 0 1-90.619429-275.029966c0-269.366252 233.798127-488.665271 521.061716-488.665271s521.061716 219.299018 521.061716 488.665271-233.798127 488.438722-521.061716 488.438721a548.927191 548.927191 0 0 1-191.660092-33.076091L64.339795 1023.093353a22.654857 22.654857 0 0 1-6.116812 0.906194zM521.061716 46.215909C258.71847 46.215909 45.309714 245.125555 45.309714 489.571465a418.661762 418.661762 0 0 0 88.127395 256.226435 22.654857 22.654857 0 0 1 3.851326 19.03008l-48.481395 203.893715 235.157418-70.230057a22.654857 22.654857 0 0 1 14.725658 0A503.617476 503.617476 0 0 0 521.061716 932.247375c262.343247 0 475.752002-198.683098 475.752002-443.129007S783.178415 46.215909 521.061716 46.215909z"  /><path fill="#333333" d="M341.18215 408.467076m-52.106172 0a52.106172 52.106172 0 1 0 104.212344 0 52.106172 52.106172 0 1 0-104.212344 0Z"  /><path fill="#333333" d="M341.18215 471.900676a63.4336 63.4336 0 1 1 63.4336-63.4336 63.660149 63.660149 0 0 1-63.4336 63.4336z m0-103.985795a40.778743 40.778743 0 1 0 40.778743 40.552195 40.778743 40.778743 0 0 0-40.778743-40.099097z"  /><path fill="#333333" d="M700.941283 408.467076m-52.106172 0a52.106172 52.106172 0 1 0 104.212343 0 52.106172 52.106172 0 1 0-104.212343 0Z"  /><path fill="#333333" d="M700.941283 471.900676a63.4336 63.4336 0 1 1 63.207051-63.4336 63.660149 63.660149 0 0 1-63.207051 63.4336z m0-103.985795a40.778743 40.778743 0 1 0 40.552194 40.552195 40.778743 40.778743 0 0 0-40.552194-40.099097z"  /></svg>