<?xml version="1.0" standalone="no"?><!DOCTYPE svg PUBLIC "-//W3C//DTD SVG 1.1//EN" "http://www.w3.org/Graphics/SVG/1.1/DTD/svg11.dtd"><svg class="icon" width="200px" height="179.33px" viewBox="0 0 1142 1024" version="1.1" xmlns="http://www.w3.org/2000/svg"><path fill="#333333" d="M189.086838 1024a22.836575 22.836575 0 0 1-22.836575-22.836575 488.245966 488.245966 0 0 1 487.789235-487.789234 22.836575 22.836575 0 1 1 0 45.673149A442.572817 442.572817 0 0 0 211.923413 1001.163425a22.836575 22.836575 0 0 1-22.836575 22.836575zM1118.992158 1024a22.836575 22.836575 0 0 1-22.836575-22.836575 443.714645 443.714645 0 0 0-220.601311-382.512625 22.836575 22.836575 0 0 1 22.836575-39.507274A489.387795 489.387795 0 0 1 1141.828732 1001.163425a22.836575 22.836575 0 0 1-22.836574 22.836575z"  /><path fill="#333333" d="M654.039498 555.393488a277.692748 277.692748 0 1 1 277.464382-277.692747 278.149479 278.149479 0 0 1-277.464382 277.692747z m0-509.48398a232.019598 232.019598 0 1 0 231.791233 231.791233A232.247964 232.247964 0 0 0 654.039498 45.909508zM22.836575 961.656151a22.836575 22.836575 0 0 1-22.836575-22.836574 418.137682 418.137682 0 0 1 417.68095-417.680951 22.836575 22.836575 0 0 1 0 45.67315A372.464533 372.464533 0 0 0 45.673149 938.819577a22.836575 22.836575 0 0 1-22.836574 22.836574z"  /><path fill="#333333" d="M417.68095 563.614655a239.098937 239.098937 0 0 1 0-478.197873 22.836575 22.836575 0 0 1 0 45.673149 193.425787 193.425787 0 0 0 0 386.851575 22.836575 22.836575 0 0 1 0 45.673149z"  /></svg>