<?xml version="1.0" standalone="no"?><!DOCTYPE svg PUBLIC "-//W3C//DTD SVG 1.1//EN" "http://www.w3.org/Graphics/SVG/1.1/DTD/svg11.dtd"><svg class="icon" width="200px" height="200.00px" viewBox="0 0 1024 1024" version="1.1" xmlns="http://www.w3.org/2000/svg"><path fill="#333333" d="M512 1024a512 512 0 1 1 512-512 512 512 0 0 1-512 512z m0-983.04a471.04 471.04 0 1 0 471.04 471.04A471.04 471.04 0 0 0 512 40.96z"  /><path fill="#333333" d="M993.28 1021.7472a20.48 20.48 0 0 1-14.5408-5.9392L885.5552 921.6a20.48 20.48 0 0 1 28.8768-29.0816l93.3888 93.3888a20.48 20.48 0 0 1 0 29.0816 20.48 20.48 0 0 1-14.5408 6.7584z"  /></svg>